REM DIRINDEX 1\2,1\3,1\4,1\5
REM DIRNAME "folder01","folder02","folder03","folder04","folder05"
TITLE ""
FILE "P1Q_t_0229-0238.mp3" MP3
  TRACK 01 AUDIO
    TITLE "3:cjc173_1603"
    INDEX 01 00:00:00
  TRACK 02 AUDIO
    TITLE "0:"
    INDEX 01 00:01:27
  TRACK 03 AUDIO
    TITLE "4:cjc173_1604"
    INDEX 01 00:01:51
  TRACK 04 AUDIO
    TITLE "0:"
    INDEX 01 00:02:60
  TRACK 05 AUDIO
    TITLE "5:cjc173_1605"
    INDEX 01 00:03:07
  TRACK 06 AUDIO
    TITLE "0:"
    INDEX 01 00:07:01
  TRACK 07 AUDIO
    TITLE "3:cjc173_1606"
    INDEX 01 00:07:46
  TRACK 08 AUDIO
    TITLE "0:"
    INDEX 01 00:08:57
  TRACK 09 AUDIO
    TITLE "4:cjc173_1607"
    INDEX 01 00:09:07
  TRACK 10 AUDIO
    TITLE "0:"
    INDEX 01 00:10:66
  TRACK 11 AUDIO
    TITLE "5:cjc173_1608"
    INDEX 01 00:11:12
  TRACK 12 AUDIO
    TITLE "0:"
    INDEX 01 00:15:12
  TRACK 13 AUDIO
    TITLE "3:cjc173_1609"
    INDEX 01 00:15:59
  TRACK 14 AUDIO
    TITLE "0:"
    INDEX 01 00:17:11
  TRACK 15 AUDIO
    TITLE "4:cjc173_1610"
    INDEX 01 00:17:30
  TRACK 16 AUDIO
    TITLE "0:"
    INDEX 01 00:19:27
  TRACK 17 AUDIO
    TITLE "5:cjc173_1611"
    INDEX 01 00:19:45
  TRACK 18 AUDIO
    TITLE "0:"
    INDEX 01 00:25:18
  TRACK 19 AUDIO
    TITLE "3:cjc173_1612"
    INDEX 01 00:25:65
  TRACK 20 AUDIO
    TITLE "0:"
    INDEX 01 00:27:01
  TRACK 21 AUDIO
    TITLE "4:cjc173_1613"
    INDEX 01 00:27:25
  TRACK 22 AUDIO
    TITLE "0:"
    INDEX 01 00:28:50
  TRACK 23 AUDIO
    TITLE "5:cjc173_1614"
    INDEX 01 00:28:71
  TRACK 24 AUDIO
    TITLE "0:"
    INDEX 01 00:33:33
  TRACK 25 AUDIO
    TITLE "3:cjc173_1615"
    INDEX 01 00:34:05
  TRACK 26 AUDIO
    TITLE "0:"
    INDEX 01 00:35:18
  TRACK 27 AUDIO
    TITLE "4:cjc173_1616"
    INDEX 01 00:35:40
  TRACK 28 AUDIO
    TITLE "0:"
    INDEX 01 00:41:33
  TRACK 29 AUDIO
    TITLE "5:cjc173_1617"
    INDEX 01 00:41:54
  TRACK 30 AUDIO
    TITLE "0:"
    INDEX 01 00:46:01
  TRACK 31 AUDIO
    TITLE "3:cjc173_1618"
    INDEX 01 00:46:48
  TRACK 32 AUDIO
    TITLE "0:"
    INDEX 01 00:47:57
  TRACK 33 AUDIO
    TITLE "4:cjc173_1619"
    INDEX 01 00:48:07
  TRACK 34 AUDIO
    TITLE "0:"
    INDEX 01 00:52:19
  TRACK 35 AUDIO
    TITLE "5:cjc173_1620"
    INDEX 01 00:52:38
  TRACK 36 AUDIO
    TITLE "0:"
    INDEX 01 00:57:49
  TRACK 37 AUDIO
    TITLE "3:cjc173_1621"
    INDEX 01 00:58:23
  TRACK 38 AUDIO
    TITLE "0:"
    INDEX 01 00:59:33
  TRACK 39 AUDIO
    TITLE "4:cjc173_1622"
    INDEX 01 00:59:54
  TRACK 40 AUDIO
    TITLE "0:"
    INDEX 01 01:02:09
  TRACK 41 AUDIO
    TITLE "5:cjc173_1623"
    INDEX 01 01:02:29
  TRACK 42 AUDIO
    TITLE "0:"
    INDEX 01 01:06:68
  TRACK 43 AUDIO
    TITLE "3:cjc173_1624"
    INDEX 01 01:07:42
  TRACK 44 AUDIO
    TITLE "0:"
    INDEX 01 01:08:65
  TRACK 45 AUDIO
    TITLE "4:cjc173_1625"
    INDEX 01 01:09:11
  TRACK 46 AUDIO
    TITLE "0:"
    INDEX 01 01:12:31
  TRACK 47 AUDIO
    TITLE "5:cjc173_1626"
    INDEX 01 01:12:51
  TRACK 48 AUDIO
    TITLE "0:"
    INDEX 01 01:17:54
  TRACK 49 AUDIO
    TITLE "3:cjc173_1627"
    INDEX 01 01:18:24
  TRACK 50 AUDIO
    TITLE "0:"
    INDEX 01 01:19:35
  TRACK 51 AUDIO
    TITLE "4:cjc173_1628"
    INDEX 01 01:19:59
  TRACK 52 AUDIO
    TITLE "0:"
    INDEX 01 01:22:08
  TRACK 53 AUDIO
    TITLE "5:cjc173_1629"
    INDEX 01 01:22:28
  TRACK 54 AUDIO
    TITLE "0:"
    INDEX 01 01:25:50
  TRACK 55 AUDIO
    TITLE "3:cjc173_1630"
    INDEX 01 01:26:22
  TRACK 56 AUDIO
    TITLE "0:"
    INDEX 01 01:27:51
  TRACK 57 AUDIO
    TITLE "4:cjc173_1631"
    INDEX 01 01:27:70
  TRACK 58 AUDIO
    TITLE "0:"
    INDEX 01 01:30:02
  TRACK 59 AUDIO
    TITLE "5:cjc173_1632"
    INDEX 01 01:30:23
  TRACK 60 AUDIO
    TITLE "0:"
    INDEX 01 01:34:39
